<svg width="19" height="21" viewBox="0 0 19 21" fill="none" xmlns="http://www.w3.org/2000/svg">
<g clip-path="url(#clip0_13205_5766)">
<path d="M14.35 8.89387C14.7742 8.87888 15.1942 8.80484 15.5983 8.67385C14.7979 11.9415 12.8756 15.8611 8.38312 18.4306L5.32194 20.1123L6.33243 17.0311C-0.362334 11.6172 0.712049 2.82709 0.712049 2.82709H0.715319C0.847871 2.79441 0.979233 2.76384 1.10881 2.73326C1.23839 2.70269 1.36768 2.67331 1.49518 2.64334C1.63308 2.61336 1.7686 2.58338 1.90353 2.55341C1.97545 2.53752 2.04738 2.52343 2.11841 2.50814C2.59036 2.40893 3.04241 2.32379 3.47156 2.24915C3.75252 2.19939 4.02258 2.15513 4.28174 2.11636C4.33404 2.10887 4.38516 2.10167 4.43628 2.09328L4.58875 2.0711C6.67688 1.76685 8.02915 1.74766 8.32368 1.74766H8.36231C8.36953 1.74713 8.37679 1.74713 8.38401 1.74766C8.38954 1.74712 8.39512 1.74712 8.40065 1.74766H8.44583C8.48 1.74766 8.53023 1.74766 8.59443 1.74976C8.61315 1.74976 8.63306 1.74976 8.65387 1.74976C8.67467 1.74976 8.68626 1.74976 8.7038 1.74976C8.79682 1.74976 8.91184 1.75396 9.04231 1.76025C9.09759 1.76235 9.15495 1.76565 9.21647 1.76774C9.24173 1.76984 9.26759 1.77104 9.29374 1.77194C9.3199 1.77284 9.34694 1.77524 9.37428 1.77614C9.38011 1.77673 9.38599 1.77673 9.39182 1.77614C9.46909 1.78033 9.55052 1.78453 9.63612 1.79083L9.86288 1.80671C9.90776 1.80971 9.95204 1.81301 9.9996 1.8172C10.0632 1.8214 10.1279 1.8266 10.1937 1.83279C10.2023 1.83279 10.2106 1.83279 10.2189 1.83489C9.79728 2.54198 9.56933 3.3493 9.55836 4.17435C9.54739 4.9994 9.75379 5.8126 10.1565 6.53084C10.5592 7.24908 11.1437 7.8466 11.8504 8.26235C12.557 8.6781 13.3605 8.89717 14.1785 8.89717C14.238 8.89717 14.2936 8.89597 14.35 8.89387Z" fill="#37C2D7"/>
<path d="M14.8324 3.11049V3.7139H13.6023V3.11049C13.6005 3.02795 13.615 2.94589 13.6451 2.86911C13.6752 2.79233 13.7201 2.72238 13.7774 2.66337C13.8346 2.60436 13.903 2.55747 13.9784 2.52546C14.0538 2.49345 14.1349 2.47696 14.2167 2.47696C14.2986 2.47696 14.3796 2.49345 14.455 2.52546C14.5305 2.55747 14.5988 2.60436 14.6561 2.66337C14.7133 2.72238 14.7583 2.79233 14.7883 2.86911C14.8184 2.94589 14.833 3.02795 14.8312 3.11049H14.8324Z" fill="#37C2D7"/>
<path d="M14.1901 -0.000118555C13.6337 -0.00679128 13.0814 0.0979913 12.5654 0.308157C12.0494 0.518322 11.5798 0.829691 11.184 1.22422C10.7882 1.61875 10.4739 2.08859 10.2594 2.60651C10.0449 3.12444 9.93445 3.68015 9.93445 4.24144C9.93445 4.80274 10.0449 5.35845 10.2594 5.87638C10.4739 6.3943 10.7882 6.86414 11.184 7.25867C11.5798 7.6532 12.0494 7.96457 12.5654 8.17473C13.0814 8.3849 13.6337 8.48968 14.1901 8.48301C14.3124 8.48301 14.4336 8.47781 14.5536 8.46742C14.9486 8.43341 15.3367 8.34257 15.7062 8.19764C16.6219 7.84079 17.3851 7.17207 17.8634 6.30735C18.3417 5.44263 18.505 4.4364 18.3251 3.46299C18.1452 2.48958 17.6333 1.61032 16.8781 0.977561C16.123 0.3448 15.1722 -0.00159889 14.1904 -0.00161743L14.1901 -0.000118555ZM15.9734 5.75522C15.973 5.87845 15.9242 5.9965 15.8377 6.08353C15.7512 6.17056 15.634 6.21946 15.5118 6.21954H12.9261C12.8036 6.21978 12.686 6.17105 12.5991 6.08403C12.5121 5.997 12.4629 5.87877 12.4622 5.75522V4.18149C12.4628 4.05798 12.5118 3.93971 12.5984 3.85238C12.6849 3.76504 12.8022 3.7157 12.9247 3.71507H12.9862V3.11166C12.9852 2.79149 13.1082 2.48358 13.3289 2.25346C13.4718 2.10257 13.6502 1.99052 13.8475 1.92768C14.0448 1.86485 14.2547 1.85327 14.4576 1.89401C14.6605 1.93476 14.85 2.02651 15.0084 2.16076C15.1668 2.29502 15.289 2.46743 15.3638 2.66202C15.4201 2.80511 15.4487 2.95773 15.4482 3.11166V3.71507H15.5109C15.6002 3.71505 15.6875 3.74123 15.7623 3.79041C15.8371 3.83959 15.8961 3.90965 15.932 3.99205C15.9598 4.05126 15.9742 4.11598 15.9739 4.18149L15.9734 5.75522Z" fill="#37C2D7"/>
</g>
<defs>
<clipPath id="clip0_13205_5766">
<rect width="17.7474" height="20.1137" fill="white" transform="translate(0.648438)"/>
</clipPath>
</defs>
</svg>
